<svg width="276" height="323" viewBox="0 0 276 323" fill="none" xmlns="http://www.w3.org/2000/svg">
<path d="M127.691 292.027C94.4159 292.027 68.3517 237.183 68.3517 167.171C68.3517 97.1588 94.4159 42.3125 127.691 42.3125C160.967 42.3125 187.031 97.1556 187.031 167.168C187.031 237.18 160.967 292.027 127.691 292.027ZM127.691 51.1143C100.583 51.1143 77.6804 104.262 77.6804 167.171C77.6804 230.081 100.583 283.227 127.691 283.227C154.8 283.227 177.702 230.08 177.702 167.17C177.702 104.261 154.8 51.1143 127.691 51.1143Z" fill="#F8AF23"/>
<path d="M201.331 264.25C190.934 264.25 178.828 261.927 165.441 257.268C138.384 247.852 108.81 229.91 82.1525 206.747C55.4955 183.585 34.8543 157.879 24.02 134.363C12.6342 109.652 13.3737 89.9508 26.1046 78.8848C38.8355 67.8189 61.505 67.1772 89.9417 77.0786C116.998 86.4945 146.573 104.437 173.23 127.599C199.883 150.762 220.528 176.468 231.364 199.984C242.749 224.696 242.01 244.397 229.279 255.463C222.541 261.313 213.017 264.249 201.331 264.25V264.25ZM54.1185 78.9199C45.1637 78.9199 38.0099 80.9812 33.2627 85.1058C23.7182 93.4007 23.7745 110.162 33.4188 131.092C43.7559 153.527 63.6066 178.185 89.3063 200.525C115.006 222.865 143.388 240.115 169.201 249.099C193.285 257.48 212.568 257.53 222.114 249.234C231.659 240.938 231.602 224.179 221.957 203.248C211.62 180.814 191.77 156.155 166.07 133.815C140.367 111.481 111.992 94.2252 86.1773 85.2375C74.069 81.0279 63.172 78.9199 54.1185 78.9199V78.9199Z" fill="#63BCE7"/>
<path d="M54.0516 264.249C42.3641 264.249 32.843 261.312 26.1078 255.456C13.3769 244.393 12.6364 224.69 24.0232 199.978C34.8607 176.463 55.5029 150.757 82.1568 127.593C108.811 104.429 138.388 86.4891 165.445 77.0722C193.882 67.1782 216.551 67.8199 229.282 78.8784C242.013 89.9369 242.754 109.645 231.367 134.357C220.529 157.872 199.887 183.578 173.233 206.742C146.582 229.904 117.003 247.846 89.945 257.263C76.5553 261.925 64.4471 264.249 54.0516 264.249V264.249ZM201.264 78.9199C192.208 78.9199 181.315 81.0268 169.205 85.2417C143.387 94.2252 115.018 111.476 89.3106 133.816C63.6035 156.156 43.7538 180.814 33.4189 203.248C23.7756 224.18 23.7183 240.939 33.2627 249.234C42.8071 257.529 62.0936 257.48 86.1752 249.099C111.994 240.116 140.363 222.865 166.07 200.525C191.775 178.186 211.626 153.528 221.957 131.092C231.601 110.161 231.658 93.4007 222.114 85.1057C217.374 80.9811 210.218 78.9199 201.264 78.9199V78.9199Z" fill="#F46275"/>
<path d="M93.3588 170.093H107.762V192.406H93.3588V170.093Z" fill="#84C2A1"/>
<path d="M93.3588 170.092H103.453V192.404H93.3588V170.092Z" fill="#86AA96"/>
<path d="M120.49 156.015H134.892V192.406H120.49V156.015Z" fill="#84C2A1"/>
<path d="M147.621 141.937H162.023V192.406H147.621V167.171V141.937Z" fill="#84C2A1"/>
<path d="M151.93 141.936H162.024V192.404H151.93V141.936Z" fill="#B2DDC6"/>
</svg>
