<svg id="Capa_1" enable-background="new 0 0 497 497" height="512" viewBox="0 0 497 497" width="512" xmlns="http://www.w3.org/2000/svg"><g><circle cx="248.5" cy="185" fill="#ffc682" r="35.5"/><path d="m255 219.91c-2.1.39-4.28.59-6.5.59-19.61 0-35.5-15.89-35.5-35.5s15.89-35.5 35.5-35.5c2.22 0 4.4.2 6.5.59-16.51 3.06-29 17.52-29 34.91s12.49 31.85 29 34.91z" fill="#ffac5c"/><path d="m211.766 338.5h73.469c11.483 0 20.791-9.309 20.791-20.791v-15.033c0-31.577-25.599-57.176-57.176-57.176h-.7c-31.577 0-57.176 25.599-57.176 57.176v15.033c.001 11.482 9.309 20.791 20.792 20.791z" fill="#50758d"/><circle cx="248.5" cy="30" fill="#fad207" r="30"/><path d="m248 122.5c-4.142 0-7.5-3.357-7.5-7.5v-25c0-4.143 3.358-7.5 7.5-7.5s7.5 3.357 7.5 7.5v25c0 4.143-3.357 7.5-7.5 7.5z" fill="#fad207"/><circle cx="452.954" cy="147.854" fill="#fd646f" r="30"/><path d="m398.41 175.1-53 18c-.8.27-1.61.4-2.41.4-3.12 0-6.04-1.97-7.1-5.09-.44-1.31-.51-2.65-.24-3.91.51-2.52 2.32-4.71 4.93-5.6l53-18c3.92-1.34 8.18.77 9.51 4.69.04.11.07.21.1.32 1.11 3.83-.98 7.9-4.79 9.19z" fill="#fd646f"/><circle cx="453.27" cy="359.532" fill="#2edffc" r="30"/><path d="m403.42 341.8c-.06.17-.12.34-.19.5-.01.02-.02.04-.03.07-1.21 2.79-3.96 4.52-6.88 4.52-.8 0-1.62-.13-2.42-.4l-53-18c-3.92-1.33-6.02-5.59-4.69-9.52.51-1.48 1.42-2.69 2.58-3.56 1.92-1.45 4.49-1.96 6.94-1.12l53 18c3.92 1.33 6.02 5.59 4.69 9.51z" fill="#2edffc"/><circle cx="44.047" cy="147.854" fill="#50758d" r="30"/><path d="m161.1 188.41c-.05.16-.11.31-.18.46-1.18 2.85-3.96 4.63-6.92 4.63-.79 0-1.58-.13-2.37-.39l-.04-.01-53-18c-5.599-1.745-6.812-9.564-2.25-12.97 1.92-1.53 4.57-2.08 7.07-1.23l53 18c3.92 1.33 6.02 5.59 4.69 9.51z" fill="#50758d"/><circle cx="43.73" cy="359.532" fill="#f5f5f5" r="30"/><path d="m160.97 323.18c-.59 2.4-2.36 4.46-4.87 5.31l-53 18c-.8.27-1.62.4-2.42.4-3.12 0-6.04-1.97-7.1-5.09-.05-.15-.09-.29-.13-.44-.99-3.59.84-7.37 4.24-8.84l.01-.01c.18-.08.38-.15.57-.22l8.63-2.93 44.37-15.07c3.92-1.34 8.18.76 9.52 4.68.48 1.41.51 2.87.18 4.21z" fill="#f5f5f5"/><circle cx="248.5" cy="467" fill="#93ddb7" r="30"/><path d="m248 414.5c-4.142 0-7.5-3.357-7.5-7.5v-25c0-4.143 3.358-7.5 7.5-7.5s7.5 3.357 7.5 7.5v25c0 4.143-3.357 7.5-7.5 7.5z" fill="#93ddb7"/><path d="m275.19 43.69c-4.97 9.69-15.06 16.31-26.69 16.31-16.57 0-30-13.43-30-30 0-11.63 6.62-21.72 16.31-26.69-2.12 4.1-3.31 8.76-3.31 13.69 0 16.57 13.43 30 30 30 4.93 0 9.59-1.19 13.69-3.31z" fill="#faa515"/><path d="m479.64 161.54c-3.33 6.5-9.03 11.81-16.43 14.5-15.56 5.67-32.78-2.36-38.45-17.93-5.23-14.38 1.22-30.17 14.52-36.96-3.69 7.17-4.49 15.79-1.52 23.96 5.67 15.57 22.89 23.6 38.45 17.93 1.19-.43 2.33-.93 3.43-1.5z" fill="#fc4755"/><path d="m479.96 373.21c-6.78 13.29-22.57 19.75-36.95 14.51-15.57-5.66-23.6-22.88-17.93-38.45 2.7-7.4 8-13.1 14.5-16.42-.57 1.09-1.07 2.23-1.5 3.42-5.67 15.57 2.36 32.79 17.93 38.45 8.17 2.97 16.79 2.18 23.95-1.51z" fill="#27bdf3"/><path d="m70.74 161.53c-6.78 13.29-22.57 19.75-36.95 14.51-15.57-5.66-23.6-22.88-17.93-38.45 2.69-7.4 7.99-13.09 14.49-16.42-.56 1.09-1.06 2.23-1.49 3.42-5.67 15.57 2.36 32.79 17.93 38.45 8.16 2.97 16.78 2.18 23.95-1.51z" fill="#2b597f"/><path d="m70.42 373.22c-3.33 6.5-9.03 11.81-16.43 14.5-15.57 5.67-32.78-2.36-38.45-17.93-5.24-14.38 1.22-30.17 14.51-36.95-3.69 7.16-4.48 15.78-1.51 23.95 5.67 15.57 22.88 23.6 38.45 17.93 1.19-.43 2.33-.93 3.43-1.5z" fill="#e6e6e6"/><path d="m275.19 480.69c-4.97 9.69-15.06 16.31-26.69 16.31-16.57 0-30-13.43-30-30 0-11.63 6.62-21.72 16.31-26.69-2.12 4.1-3.31 8.76-3.31 13.69 0 16.57 13.43 30 30 30 4.93 0 9.59-1.19 13.69-3.31z" fill="#5ed297"/><path d="m228.77 338.5h-17c-11.49 0-20.8-9.31-20.8-20.79v-15.03c0-31.58 25.6-57.18 57.18-57.18h.7c2.77 0 5.49.2 8.15.58-27.72 3.95-49.03 27.79-49.03 56.6v15.03c0 11.48 9.31 20.79 20.8 20.79z" fill="#2b597f"/><path d="m252.43 121.04c-1.24.92-2.77 1.46-4.43 1.46-4.14 0-7.5-3.36-7.5-7.5v-25c0-3.97 3.09-7.23 7-7.47v31.47c0 3.24 2.05 6 4.93 7.04z" fill="#faa515"/><path d="m252.43 375.96c-1.24-.92-2.77-1.46-4.43-1.46-4.14 0-7.5 3.36-7.5 7.5v25c0 3.97 3.09 7.23 7 7.47v-31.47c0-3.24 2.05-6 4.93-7.04z" fill="#5ed297"/><path d="m93.401 337.596c1.93 2.24 5.11 3.2 8.09 2.18l59.43-20.36c.99 3.59-.84 7.37-4.24 8.84l-.01.01-9.2 3.15-44.37 15.07c-3.92 1.34-8.18-.76-9.52-4.68-.48-1.41-.51-2.87-.18-4.21z" fill="#e6e6e6"/><path d="m160.92 188.87c-1.18 2.85-3.96 4.63-6.92 4.63-.79 0-1.58-.13-2.37-.39l-.04-.01-53-18c-5.599-1.745-6.812-9.564-2.25-12.97.19 2.92 2.11 5.58 5.06 6.58z" fill="#2b597f"/><path d="m403.23 342.3c-.01.02-.02.04-.03.07-1.21 2.79-3.96 4.52-6.88 4.52-.8 0-1.62-.13-2.42-.4l-53-18c-3.92-1.33-6.02-5.59-4.69-9.52.51-1.48 1.42-2.69 2.58-3.56.15 2.95 2 5.58 4.98 6.6z" fill="#27bdf3"/><path d="m398.41 175.1-53 18c-.8.27-1.61.4-2.41.4-3.12 0-6.04-1.97-7.1-5.09-.44-1.31-.51-2.65-.24-3.91.04-.12.07-.23.1-.33 1.94 2.2 5.08 3.13 8.03 2.12l59.41-20.38c1.11 3.83-.98 7.9-4.79 9.19z" fill="#fc4755"/></g></svg>